<svg xmlns="http://www.w3.org/2000/svg" xml:space="preserve" id="Capa_1" x="0" y="0" version="1.1" viewBox="0 0 1080 1080"><style>.st6{fill:#e6c200}.st7{fill:#fd0}.st10{fill:#fff}.st11{fill:#1a1414}.st12{fill:#5a5455}.st71{fill:#abbee2}.st72{fill:#8795c9}.st73{fill:#abc8ea}.st74{fill:#688d2e}.st75{fill:#0b4b91}.st76{fill:#c7daff}.st78{fill:#074d87}.st81{fill:#fff;stroke:#1d1d1b;stroke-width:.737;stroke-miterlimit:10}</style><path fill="#3c3c3b" d="M108.7 88.4h656.9v898.3H108.7z"/><path fill="#eff8fd" d="M136.7 112.7h600.9V962H136.7z"/><path fill="#ffca00" d="M312.6 88.4V119c0 16.9 13.7 30.6 30.6 30.6h164.2c16.9 0 30.6-13.7 30.6-30.6V88.4H312.6z"/><path d="M206.4 841.8h74.3v7.5h-74.3zM298 841.8h74.3v7.5H298zM206.4 858.5h103.1v7.5H206.4z" class="st71"/><path d="M274.6 275.3h322.8v4.2H274.6z" class="st72"/><path d="M677.5 428.3H568.8V319.6h108.7v108.7zm-103.6-5.1h98.4v-98.4h-98.4v98.4z" class="st73"/><path d="M625.8 406.4c-2.3 0-4.5-1-5.9-2.8L586.4 363c-2.7-3.3-2.2-8.1 1-10.8 3.3-2.7 8.1-2.2 10.8 1l26.6 32.2 48.1-80.8c2.2-3.6 6.9-4.8 10.5-2.7 3.6 2.2 4.8 6.9 2.7 10.5l-53.7 90.1c-1.3 2.1-3.5 3.5-6 3.7-.2.2-.4.2-.6.2z" class="st74"/><g><path d="M243.5 335.6h241.4v10.6H243.5zM243.5 383H466v10.6H243.5zM419.1 359.3h65.8v10.6h-65.8zM243.5 359.3h157.4v10.6H243.5z" class="st71"/><g><path d="m189.4 345.1-10.8 3-2.2-8.6 16.1-5.1h7.4v60.4h-10.5v-49.7zM206.8 391c0-2.1 1.7-3.8 3.8-3.8 2.1 0 3.8 1.7 3.8 3.8 0 2.1-1.7 3.8-3.8 3.8-2.1 0-3.8-1.7-3.8-3.8z" class="st71"/></g></g><g><path d="M678.3 590.6H569.6V481.9h108.7v108.7zm-103.5-5.1h98.4v-98.4h-98.4v98.4z" class="st73"/><path d="M626.7 568.8c-2.3 0-4.5-1-5.9-2.8l-33.5-40.6c-2.7-3.3-2.2-8.1 1-10.8 3.3-2.7 8.1-2.2 10.8 1l26.6 32.2 48.1-80.8c2.2-3.6 6.9-4.8 10.5-2.7 3.6 2.2 4.8 6.9 2.7 10.5L633.3 565c-1.3 2.1-3.5 3.5-6 3.7-.2.1-.4.1-.6.1z" class="st74"/><g><path d="m175.9 548.9 20.5-17.5c8.2-6.9 11.2-10.7 11.2-16.1 0-5.9-4.2-9.3-9.6-9.3-5.4 0-9.2 3-13.8 8.9l-7.4-5.8c5.7-8 11.3-12.5 22-12.5 11.7 0 19.7 7.2 19.7 18 0 9.4-5 14.4-15.5 23.1L190.7 548H219v9.2h-43.1v-8.3zM226.1 553.4c0-2.1 1.7-3.8 3.8-3.8 2.1 0 3.8 1.7 3.8 3.8 0 2.1-1.7 3.8-3.8 3.8-2.1 0-3.8-1.7-3.8-3.8z" class="st71"/><g><path d="M245.5 498h253.7v10.6H245.5zM245.5 545.3h233.8v10.6H245.5zM430 521.7h69.2v10.6H430zM245.5 521.7h165.4v10.6H245.5z" class="st71"/></g></g></g><g><path d="M678.3 754.2H569.6V645.5h108.7v108.7zm-103.5-5.1h98.4v-98.4h-98.4v98.4z" class="st73"/><path d="M626.7 732.3c-2.3 0-4.5-1-5.9-2.8L587.2 689c-2.7-3.3-2.2-8.1 1-10.8 3.3-2.7 8.1-2.2 10.8 1l26.6 32.2 48.1-80.8c2.2-3.6 6.9-4.8 10.5-2.7 3.6 2.2 4.8 6.9 2.7 10.5l-53.7 90.1c-1.3 2.1-3.5 3.5-6 3.7-.1.1-.3.1-.5.1z" class="st74"/><path d="M245.5 661.5h253.7v10.6H245.5zM245.5 708.9h233.8v10.6H245.5zM430 685.2h69.2v10.6H430zM245.5 685.2h165.4v10.6H245.5z" class="st71"/><g><path d="m175.2 709.9 7.2-6.7c4.2 4.9 8.8 7.7 15.3 7.7 5.7 0 10.1-3.5 10.1-9 0-5.7-5.2-9-13.4-9h-4.7l-1.7-6.4 15.7-16.7h-25.2v-8.9H217v7.7l-16.2 16.7c9.2 1.3 17.2 6.1 17.2 16.6 0 10.7-8.3 18.4-20.4 18.4-10.3-.1-17.5-4.4-22.4-10.4zM220.9 716.5c0-2 1.7-3.7 3.7-3.7s3.7 1.7 3.7 3.7-1.7 3.7-3.7 3.7c-2.1 0-3.7-1.7-3.7-3.7z" class="st71"/></g></g><g><path d="M878.4 508.9s-52 43.4-72.3 39.4c-15.9-3.1-40.2-11.5-40.2-11.5l-4.9 12.4s21.8 29.6 44.6 29.8c35.6.3 61.8-15.4 61.8-15.4l11-54.7z" class="st6"/><path d="M969.6 966.8s-1.5 24.4-6.2 24.7h-23.9l-29.7-.2s.2-7.2 8.9-8.7c8.7-1.5 23.2-7.6 28.5-19.1 5.5-11.9 22.4 3.3 22.4 3.3z" class="st75"/><path d="M971.3 968.5s-9 3-16.1 3c-7.9 0-15-2.1-15-2.1s-1.7-16.4-11.1-52.7c-4.9-19-11.9-43.4-21.9-73.7-27.6-83.8-35.9-132.9-36.7-137.5 0-.2-.1-.4-.1-.4h.1l84.7-37.2s-10.5 115.6 2.9 159.9c1.9 6.2 3.5 13.4 4.8 21.2 8.6 48.2 8.4 119.5 8.4 119.5z" class="st76"/><path fill="#85b0f3" d="M929.2 916.7c-4.9-19-11.9-43.4-21.9-73.7-27.6-83.8-35.9-132.9-36.7-137.5v-.4l84.7-37.2s-10.5 115.6 2.9 159.9c1.9 6.2-29 88.9-29 88.9z"/><path d="M903.4 966.8s-1.5 24.4-6.2 24.7h-23.9l-29.7-.2s.2-7.2 8.9-8.7c8.7-1.5 23.2-7.6 28.5-19.1 5.5-11.9 22.4 3.3 22.4 3.3z" class="st75"/><path d="M855.4 670.6s-1.1 74.9 11.9 166.8 8.6 131 8.6 131 8.9 2.9 12.5 3.2c9.2.7 18.5-2.1 18.5-2.1s18.5-92 13.2-138c-5.3-46 25.4-157.9 25.4-157.9l-90.1-3z" class="st76"/><path fill="#202020" d="M915.5 495.4 899 506.2l-15.1-4.3c-2.8-3.9-3.5-11.5-3.5-18.1 0-6.5.6-12 .6-12l22.3-9.8 8.3-3.7c0 .1-.6 6.8-.7 7.8-1.6 17.4 4.6 29.3 4.6 29.3z"/><path d="M855 691.4c20.6 19.9 98.5 16.5 103.3-5.4 4.8-21.9-5.2-186.4-40.4-196.7-7.3-2.1-46.3 10.5-46.3 10.5s-6.1 16-10.1 36.4c-.8 4-3.1 46-4.8 85.3-.8 18.4-1.5 36.2-1.8 49.2-.3 12.2-.3 20.3.1 20.7z" class="st7"/><path d="M909.2 466.5c-4.5 7.7-20.4 14.3-28.8 17.4 0-6.5.6-12 .6-12l22.3-9.8c4.9-.2 7.9.9 5.9 4.4z" class="st11"/><path d="M881.2 489.9c.5-.2 26.8-12 29.8-11 3.1 1 6.9 10.4 6.9 10.4l-46.3 10.5s3.7-7.4 9.6-9.9z" class="st7"/><path d="m717.5 617.3 147.4 138.8c2.9 2.7 6.5 3.6 8.1 1.9l5-5.3c1.6-1.7.5-5.2-2.4-8L728.1 605.9c-2.9-2.7-6.5-3.6-8.1-1.9l-5 5.3c-1.5 1.7-.4 5.3 2.5 8z" class="st78"/><path fill="#7491ca" d="m800.2 695.2 64.7 60.9c2.9 2.7 6.5 3.6 8.1 1.9l5-5.3c1.6-1.7.5-5.2-2.4-8l-64.7-60.9-10.7 11.4z"/><path fill="#aecaeb" d="M563.3 604.1c14.8 15.8 33.3 26 52.9 30.6 33.6 8 70.5-.6 97.5-26 42.8-40.3 44.9-107.6 4.6-150.4-25.4-27-61.7-37.8-95.7-31.9-19.8 3.4-38.9 12.5-54.7 27.3-42.8 40.2-44.9 107.6-4.6 150.4z" opacity=".5"/><path d="M854.9 670.7c81.2-57.9 74.5-135.1 74.5-135.1-29.7 16.7-59.1 53.8-72.7 85.9-.8 18.4-1.4 36.2-1.8 49.2z" class="st6"/><path d="M774.8 644.4c-5.7-1.3-9.6-5.7-10.4-6.4 0 0-2.4.2.4 5.4.2.4.8 1.6 1.2 2.3.2.3-.1.7-.4.7-3.3.3-6.6-1.1-13 .3-.9.2-1.1 2.3-1.1 3.2.1 1.5-.1 3.2 1.7 5.5 1 1.4 3.9 2.8 10.3 5.4 2.4 1 9.4.2 15.9-2l5.2-2.4-1.6-9.7-1.3.3c-2.2.4-4.8-2.1-6.9-2.6z" class="st81"/><path d="M904.2 499.8s73 13.9-21.5 119.6c-15.1 16.9-96.7 38.9-96.7 38.9s-8.3-7-4.1-12.7c0 0 56.2-40.8 68.6-47.3 5.6-2.9 21.6-65.1 30.7-80.1 9-15.1 23-18.4 23-18.4z" class="st7"/><path d="M753.7 525c-.1-.4-.1-.8-.1-1.1.2-2.1 1.8-2.8 2.3-2.3.7.7 1.9 3.1 2.9 5.6 1.4 1.5 2.7 3.1 3.3 4 1.3 2.2 3.4 6.8 3.4 6.8l-4 10.3c-10.2-2.9-8-7.6-10-10.3-1.8-2.5.9-10.2 2.2-13z" class="st81"/><path fill="#455a64" d="M883 399.5h.4c.8 0 1.4.7 1.3 1.5l-.9 18.1c0 .8-.7 1.4-1.5 1.3h-.4l1.1-20.9z"/><path id="XMLID_00000111185707393139641770000008240978217729153432_" d="M881.1 475.6c3.7-.3 6.9-1.3 10.3-2.8 3.2-1.4 6.3-3 9.2-4.9l10.1-22.2-33.7 14.6-.1 1.4-2.8 14.3c2.4-.1 4.7-.2 7-.4z" class="st11"/><g id="XMLID_00000150785164483150249870000012739656448901456540_"><g id="XMLID_00000014599835259989928430000005630367399223101616_"><path d="M915.5 447.2c8.4-8.4 10.6-16.6 10.9-18.4 1.4-.4 2.6-.6 3.7-.6 2.6 0 4.3 1.1 5.3 3.3.8 1.8.7 3.9 0 5.8-3.5 9-16.6 11.1-18.9 11.4l-1-1.5z" class="st10"/><path d="M930.1 428.8c2.3 0 3.9 1 4.8 3 .7 1.6.7 3.6 0 5.4-3.3 8.3-15.1 10.5-18.1 11l-.5-.9c7.8-7.9 10.1-15.7 10.7-18 1.1-.3 2.2-.5 3.1-.5m0-1.1c-1.2 0-2.5.2-4.2.7 0 0-1.6 9.3-11.2 18.7l1.4 2.3s15.7-1.5 19.7-11.8c.8-2 .9-4.3 0-6.3-.7-1.8-2.3-3.6-5.7-3.6z" class="st11"/></g><path id="XMLID_00000036936237771123092420000000752210161228862138_" d="M925.9 428.4s-1 5.4-5.6 12.2c0 0 15.4-15.4 15.6-3 0 0 1.4-3.2 0-6.3-1.1-2.4-3.7-4.9-10-2.9z" class="st11"/></g><g id="XMLID_00000029047498189040598110000000487669311596558744_"><g id="XMLID_00000182496389257432798720000017959345515667823268_"><path d="M856.4 447.3c-2.3-.4-15.2-3.2-18.3-12.3-.7-2-.6-4.1.3-5.8 1-2 2.7-3.1 5-3.1 1.2 0 2.6.3 4.1.8.3 1.8 2 10.1 10 18.9l-1.1 1.5z" class="st10"/><path d="M843.4 426.7c1 0 2.2.2 3.6.7.4 2.4 2.4 10.2 9.8 18.5l-.6.8c-3-.6-14.7-3.4-17.5-11.9-.6-1.8-.5-3.8.2-5.4.9-1.8 2.4-2.7 4.5-2.7m0-1.1c-3.1 0-4.7 1.7-5.5 3.4-1 1.9-1 4.2-.3 6.3 3.5 10.4 19.1 12.7 19.1 12.7l1.5-2.2c-9.1-9.9-10.2-19.3-10.2-19.3-1.8-.7-3.3-.9-4.6-.9z" class="st11"/></g><path id="XMLID_00000070841076398983502950000003010855141450905218_" d="M848 426.5s.7 5.5 5 12.5c0 0-14.6-16.1-15.4-3.8 0 0-1.3-3.2.3-6.3 1.2-2.4 3.9-4.7 10.1-2.4z" class="st11"/></g><g id="XMLID_00000042013059249335499010000007713197262419989909_"><path id="XMLID_00000107569691059006412760000016477784674764320431_" d="M925 413.1c-4.3-25.7-37.3-12.9-37.3-12.9-.1 0-30.1-15.2-38 11.1-7.4 37.3 11.2 34.3 11 45.5-.3 16.9 15.8 26.9 24.7 27.1h.2c8.9.3 25.4-8.9 26-25.9.5-11.2 18.8-7.2 13.4-44.9z" class="st11"/><path id="XMLID_00000150793677627082450760000007544804345536674187_" d="M917.3 422.5s-3.7-12.4-14.2-12.7c-12-.3-15.4 9.2-16.1 11.5-.5-2.3-3.4-11.9-15.4-12.2-10.5-.3-14.8 12-14.8 12s-6.7 32 15 32.5c0 0-6 3.5-4.7 11.6 1 8.6 13 16.9 18.5 17.1 5.4.1 17.9-7.6 19.3-16.2 1.7-8-4.1-11.8-4.1-11.8 21.6.4 16.5-31.8 16.5-31.8z" class="st10"/></g><g id="XMLID_00000024705900008926116960000006209986610299226288_"><path id="XMLID_00000044887447190475634380000001037543839052941473_" d="M906.4 434.5c-.2 2.3-2.2 3.9-4.4 3.7-2.2-.2-3.8-2.2-3.6-4.5.2-2.3 2.2-3.9 4.4-3.7 2.2.2 3.8 2.2 3.6 4.5z" class="st12"/><path id="XMLID_00000113319574587511596050000007591847279680151738_" d="M905.7 434.4c-.2 1.9-1.8 3.2-3.6 3-1.8-.2-3.1-1.9-3-3.7.2-1.9 1.8-3.2 3.6-3 1.8.2 3.2 1.8 3 3.7z" class="st11"/><path id="XMLID_00000036249285753116566320000018188377292251744149_" d="M903.1 430.4c-.1.9.4 1.7 1.3 1.8.8.1 1.6-.5 1.8-1.3.1-.9-.4-1.7-1.3-1.8-.9-.1-1.7.5-1.8 1.3z" class="st10"/></g><g id="XMLID_00000179627776434884481990000005911923435500311469_"><path id="XMLID_00000088131641789760333370000015483529629395787433_" d="M867.3 433.5c.1 2.3 2 4 4.2 3.9 2.2-.1 3.9-2.1 3.8-4.3-.1-2.3-2-4-4.2-3.9-2.3.1-4 2.1-3.8 4.3z" class="st12"/><path id="XMLID_00000041282977114732263580000017795601987432886690_" d="M868 433.5c.1 1.9 1.7 3.3 3.5 3.2 1.8-.1 3.2-1.7 3.1-3.6-.1-1.9-1.7-3.3-3.5-3.2-1.8.1-3.2 1.7-3.1 3.6z" class="st11"/><path id="XMLID_00000041267100414722340260000000928173430495856283_" d="M870.8 429.6c.1.9-.5 1.6-1.4 1.7-.8.1-1.6-.5-1.7-1.4-.1-.9.5-1.6 1.4-1.7.8-.1 1.6.6 1.7 1.4z" class="st10"/></g><path id="XMLID_00000043446685842900068020000016244258451209144218_" d="M876.9 421.3s-4.1-6.5-10 .7c0 0 3.2-6.5 6.3-6.4 3.1.1 3.7 5.7 3.7 5.7z" class="st11"/><path id="XMLID_00000082357942832143393460000000559053638412975548_" d="M898.1 421.8s4.4-6.3 9.9 1.2c0 0-2.8-6.7-5.9-6.7-3.1-.1-4 5.5-4 5.5z" class="st11"/><path id="XMLID_00000155826748673960979750000004468051773812947080_" d="M882.3 452.9c-.4-.2-1.1-.5-.8-1.6.3-1.1 1.1-1.9 2.6-.9 1.5 1 .9 2.5.7 3.3-.2.4-.2.5-2.5-.8z" class="st11"/><path id="XMLID_00000020362247201363173040000015609992983231794060_" d="M890.3 453.1c.4-.2 1.1-.5.9-1.6-.2-1.1-1-2-2.5-1-1.6 1-1 2.5-.8 3.3.1.4 0 .5 2.4-.7z" class="st11"/><g id="XMLID_00000095330303977811084950000011066488240049447305_"><path id="XMLID_00000151523138586298384000000006125949415196998554_" fill="#f2cf35" stroke="#f2cf35" stroke-miterlimit="10" stroke-width=".285" d="m855.8 423.9 2.7-.6c2.2-.4 4.5-.8 6.7-1.2 2.2-.3 4.4-.2 6.6 0 3.8.4 7.5 1.4 11.2 2.2 2.6.6 5.3.6 8 .2 3-.4 6-1 9-1.4 3.3-.5 6.6-.5 9.9.2 2.2.5 4.3 1.1 6.5 1.6.6.2 1.3.3 1.6.9 0 1.1-.1 2.1-.1 3.2-.3.3-.5.6-.8.8-.7.5-1.1 1.2-1.4 2.1-.5 1.6-1 3.3-1.5 5-1.3 4.5-4.2 7.1-8.7 7.9-3.7.6-7.2 0-10.4-2.1-2.1-1.4-3.4-3.4-4.3-5.6-.5-1.3-.9-2.7-1.3-4l-.9-2.1c-.2-.4-.6-.6-1.1-.6-.3 0-.7-.1-1-.1-.7 0-1.2.2-1.5.9-.3.8-.6 1.5-.8 2.3-.7 2.7-2.2 5.1-4 7.2-1.9 2.2-4.4 3.4-7.3 3.6-2.7.2-5.4 0-7.9-1-.9-.4-1.7-.8-2.4-1.3-.9-.6-1.6-1.5-2-2.6-1-2.6-1.9-5.2-2.4-7.9-.2-.9-.6-1.7-1.2-2.3-.6-.7-1.2-1.4-1.3-2.4.1-1 .1-1.9.1-2.9zm46.3.9c-.6 0-1.3 0-2 .1-2.2.2-4.4.6-6.4 1.6-2.2 1.1-3 2.7-2.5 5.1.4 2.3 1.3 4.4 2.3 6.4 1.4 2.5 3.4 4.1 6.1 4.8 2.2.6 4.4.6 6.6.2 2.5-.5 4.3-1.9 5.3-4.3 1.2-2.8 1.9-5.7 1.9-8.8 0-1.2-.5-2.3-1.5-2.9-.7-.5-1.5-.8-2.3-1.1-2.4-.7-4.9-.9-7.5-1.1zm-30.8-.7c-1.3.1-3.4.3-5.6.5-.8.1-1.6.3-2.3.6-1.3.5-2.3 1.3-2.6 2.7-.1.6-.2 1.3-.2 1.9 0 2.5.5 5 1.3 7.4.8 2.4 2.4 4.1 4.9 4.8 1.5.4 3 .6 4.5.6 3.5-.1 6.5-1.4 8.5-4.4 1.3-1.9 2.2-4 2.8-6.3.8-3 0-4.7-2.8-6-2.4-1.2-4.9-1.7-8.5-1.8z"/></g><path id="XMLID_00000055703814815662624770000017344859508627756208_" d="M893.2 468.4c-2.8.7-5.2.9-7.9.9s-5.1-.3-7.9-.9c.4-.7.8-1.1.8-1.1.2-.2.2-.5.1-.7-.2-.2-.5-.2-.7-.1-.1.1-2.1 1.8-1.6 4.8 0 .3.3.5.6.4.3 0 .4-.3.4-.6-.1-.7 0-1.3.1-1.9.9.2.5.2 1.4.3-.2 1.2 0 5.7 6.6 6.2 6.9 0 7.5-4.4 7.1-6.1.9-.1.6-.1 1.5-.3.1-.1 0-1-.5-.9z" class="st11"/><path d="M910.2 412.2s-19.7-13-45.2-1.5l12.7 4.9 10.8 6 21.7-9.4z" class="st10"/><path d="M843.6 419.4c.7 0 1.4-.4 2-.8.1 1 .2 2.1.3 3 .3 2.1.2 4.6 1.2 6.5.5 1 .7 2.6 1.1 3.7.4 1 1 2.1 1.6 3 .8 1 1.7 2.1 2.2 3.2.3.5 1 .8 1.4 1.3-.4-2.3.1-4.8.5-7.2 0-.4-.1-.7-.1-1.1.1-3.5.1-6.9.8-10.3.8-3.4 2.6-6 5.2-8.2 2.6-2.2 5.4-4.7 9-4.5 3.8.2 7.6 1.3 11.4 2.1 1.4.3 2.7 1.2 4.2 1.2s3.4.5 4.9.8c1.3.3 4-.2 5.4-.2-.6.1-2.5.7-3 .9-3.9 1-14.4 0-15.3-.1-.1 0-.1.1 0 .2 2.5 1.1 5.5 1.5 8.2 1.6 2.8.1 5.8.5 8.6.1 1.3-.2 2.5-.6 3.8-1.1-.6 2.8-5.6 3.8-5.4 3.8.1 0 .1.1.2.1 2.1.5 3.7 0 5.9-.7 2.6-.8 5.3-1.5 7.5-3.1 2.5-1.8 5.1-3.6 7.3-5.8.1 0 .1-.1.2-.2l.6.6c.7.7 1.3 1.6 2 2.4 0 .1 0 .2.1.3 2 2.3 3.4 5.2 4.3 8.1.1.2.1.4.2.6.1.4.2.7.3 1.2.4 1.9.6 3.8.7 5.7 0 .2.1.8.1 1.6-.1 2.1-.2 4.2-.1 6.3-.1.4-.2.9-.3 1.3-.5 1.9-.7 3.9-.6 5.9v.1c.7-.9 1.4-1.9 2.1-2.9.1-.3.3-.6.5-.9.1-.2.3-.5.4-.7.2-.1.4-.3.5-.4.3-.5.6-1 1-1.5.5-.8 1-1.6 1.5-2.5.4-.9.8-1.8 1.4-2.6 2-2.8 3.5-6.5 4.2-9.8.7-3.6.9-7 .5-10.7-.1-1.3-.4-2.7-.8-4l.1.1c.9.7 2.9 3.3 3.2 3.2-.2-2.1-.5-4.1-1.3-6.1 0 0 0-.1-.1-.1-.6-.6-.9-1.7-1.3-2.5-.3-.5-.7-.8-1-1.3-.7-.8-1.6-1.6-2.4-2.4-.9-.8-2.1-1.6-2.9-2.6-.7-.5-1.5-1-2.3-1.4-1.4-.7-2.8-1.2-4.2-1.6.3-.1.6-.3.9-.4 1.6-.6 4.5-2.3 6.3-1.5.3.1.5-.3.3-.5-1.6-1.4-4.9-.6-6.6.1-.9.4-1.9.8-2.8 1.2l.1-.1c1.3-2 1.5-4.3 1.1-6.6 0-.2-.3-.2-.3 0-.4 2-.6 4.3-2 5.9.1-1.8-1.1-4.1-1.9-5.3-1.4-2.3-2.9-4.5-5.1-6-2.3-1.5-4.7-3.2-7.6-3.3-2.8-.1-5.8-.5-8.5.6-.3 0-.6.1-.8.1-.1.1-.1.3 0 .3 1.4.8 3.1.9 4.5 1.7.3.1.5.3.7.4-2.5.2-5 .2-7.6.1-2.9-.1-5.7-.4-8.6-.8-1.7-.2-7.5-1.5-7.6-1.4 0 0 .5.9.6.9 1 1.4 3.1 2 4.5 2.8.1.1.3.1.4.2-2.5-.1-5 .6-7.5 1-6 .9-10.4 3.6-14.4 8.2-1.9 2.2-3.5 4.8-5.2 7.1-1.8 2.4-3.1 4.6-4 7.5-.7 2.6-1.4 5.3-2.2 7.9-.4 1.3-.9 2.7-1.3 4-.1.4.2 2-.2 2.8-.2.4-.4 1.1-1.2 1.5-.3.1.3 0 .5 0zm74.6-7c.4.4.8.9 1.1 1.4-.3-.4-.6-.7-.9-1.1-.1-.1-.1-.2-.2-.3z" class="st11"/><path d="M725 452c-43.7-46.5-116.8-48.7-163.3-5-.6.6-1.2 1.2-1.8 1.7-44.7 43.9-46.3 115.7-3.2 161.6 43.7 46.5 116.8 48.7 163.3 5 15.2-14.3 25.7-31.8 31.4-50.4 11.6-38.3 3-81.7-26.4-112.9zm-11.3 156.7c-27 25.5-63.9 34-97.5 26-19.6-4.6-38.1-14.9-52.9-30.6-40.3-42.8-38.2-110.1 4.6-150.4 15.8-14.8 34.8-23.9 54.7-27.3 34-5.9 70.3 4.9 95.7 31.9 40.3 42.8 38.2 110.1-4.6 150.4z" class="st78"/></g><g><path d="m219.6 246.1 9-10.8c5.5 4.2 11.8 5.9 17.7 5.9 3 0 4.3-.8 4.3-2.2 0-1.4-1.6-2.2-7-3.3-11.3-2.3-21.3-5.6-21.3-16.3v-.1c0-9.6 7.5-17.1 21.5-17.1 9.8 0 17 2.3 22.8 6.9l-8.2 11.4c-4.8-3.5-10.5-5-15.2-5-2.5 0-3.7.9-3.7 2.1v.1c0 1.4 1.4 2.2 6.7 3.3 12.9 2.4 21.6 6.1 21.6 16.3v.1c0 10.6-8.7 17.1-22.3 17.1-10.3.2-19.5-2.7-25.9-8.4zM273.5 228.6v-.1c0-14.7 12.1-26.4 27.7-26.4s27.5 11.6 27.5 26.2v.1c0 14.7-12.1 26.4-27.7 26.4s-27.5-11.6-27.5-26.2zm38.1 0v-.1c0-6-4.1-11.4-10.6-11.4-6.4 0-10.5 5.3-10.5 11.3v.1c0 6 4.1 11.4 10.6 11.4 6.5-.1 10.5-5.4 10.5-11.3zM336.2 203.1h16.9v36.1h23.8v14.5h-40.7v-50.6zM383.6 203.1h16.9v50.6h-16.9v-50.6zM408.2 228.6v-.1c0-15.1 11.8-26.4 26.9-26.4 11.1 0 18.6 5.4 22.9 13.2l-13.9 8.2c-1.9-3.6-4.6-6.1-9.2-6.1-5.7 0-9.5 5-9.5 11.1v.1c0 6.6 3.9 11.2 9.5 11.2 4.8 0 7.4-2.6 9.5-6.4l13.9 7.9C454 248.8 447 255 434.4 255c-14-.2-26.2-10.8-26.2-26.4zM464.6 203.1h16.9v50.6h-16.9v-50.6zM503.3 217.4h-14.9v-14.3h46.7v14.3h-14.9v36.3h-16.9v-36.3zM541.4 231v-27.9h17.2v27.7c0 6.3 3.3 9 7.8 9 4.6 0 7.8-2.5 7.8-8.6v-28h17.2v27.5c0 17.3-10 24.1-25.2 24.1-15.1-.1-24.8-7-24.8-23.8zM599.6 203.1H619c20.1 0 30.1 9.9 30.1 24.9v.1c0 15-10.3 25.6-30.7 25.6h-18.8v-50.6zm17 14.8V239h2.8c7.7 0 12.7-3.2 12.7-10.5v-.1c0-7.3-5-10.5-12.7-10.5h-2.8z" class="st72"/></g></svg>